<?xml version="1.0" standalone="no"?>
<!DOCTYPE svg PUBLIC "-//W3C//DTD SVG 20010904//EN"
 "http://www.w3.org/TR/2001/REC-SVG-20010904/DTD/svg10.dtd">
<svg version="1.0" xmlns="http://www.w3.org/2000/svg"
 width="290.000000pt" height="290.000000pt" viewBox="0 0 290.000000 290.000000"
 preserveAspectRatio="xMidYMid meet">
<metadata>
Created by potrace 1.11, written by Peter Selinger 2001-2013
</metadata>
<g transform="translate(0.000000,290.000000) scale(0.100000,-0.100000)"
fill="#000000" stroke="none">
<path d="M90 2871 l65 -6 -32 -13 c-29 -13 -78 -64 -78 -82 0 -5 -3 -12 -8
-16 -13 -13 -9 -2586 4 -2625 7 -19 28 -49 47 -67 l35 -32 1332 0 1332 0 37
33 c20 19 41 49 46 68 11 37 14 2564 4 2617 -8 39 -62 98 -100 109 -24 7 -18
9 41 14 39 3 -573 5 -1360 6 -786 0 -1401 -3 -1365 -6z"/>
</g>
</svg>
